<svg xmlns="http://www.w3.org/2000/svg" viewBox="0 0 1440 320"><path fill="#2242fa" fill-opacity="1" d="M0,288L14.1,272C28.2,256,56,224,85,229.3C112.9,235,141,277,169,250.7C197.6,224,226,128,254,112C282.4,96,311,160,339,170.7C367.1,181,395,139,424,149.3C451.8,160,480,224,508,256C536.5,288,565,288,593,266.7C621.2,245,649,203,678,186.7C705.9,171,734,181,762,176C790.6,171,819,149,847,165.3C875.3,181,904,235,932,256C960,277,988,267,1016,245.3C1044.7,224,1073,192,1101,160C1129.4,128,1158,96,1186,101.3C1214.1,107,1242,149,1271,176C1298.8,203,1327,213,1355,208C1383.5,203,1412,181,1426,170.7L1440,160L1440,0L1425.9,0C1411.8,0,1384,0,1355,0C1327.1,0,1299,0,1271,0C1242.4,0,1214,0,1186,0C1157.6,0,1129,0,1101,0C1072.9,0,1045,0,1016,0C988.2,0,960,0,932,0C903.5,0,875,0,847,0C818.8,0,791,0,762,0C734.1,0,706,0,678,0C649.4,0,621,0,593,0C564.7,0,536,0,508,0C480,0,452,0,424,0C395.3,0,367,0,339,0C310.6,0,282,0,254,0C225.9,0,198,0,169,0C141.2,0,113,0,85,0C56.5,0,28,0,14,0L0,0Z"></path></svg>